<?xml version="1.0" standalone="no"?>
<!DOCTYPE svg PUBLIC "-//W3C//DTD SVG 20010904//EN"
 "http://www.w3.org/TR/2001/REC-SVG-20010904/DTD/svg10.dtd">
<svg version="1.0" xmlns="http://www.w3.org/2000/svg"
 width="1500.000000pt" height="1500.000000pt" viewBox="0 0 1500.000000 1500.000000"
 preserveAspectRatio="xMidYMid meet">
<metadata>
Created by potrace 1.14, written by Peter Selinger 2001-2017
</metadata>
<g transform="translate(0.000000,1500.000000) scale(0.100000,-0.100000)"
fill="#000000" stroke="none">
<path d="M362 10635 l3 -55 157 -74 c194 -91 263 -137 305 -200 56 -83 70
-148 74 -346 2 -96 3 -1343 4 -2770 0 -2484 -1 -2599 -18 -2680 -25 -115 -70
-203 -139 -271 -61 -62 -129 -99 -274 -150 -49 -17 -93 -35 -98 -40 -5 -4 -11
-31 -12 -59 l-4 -50 666 4 c366 2 668 7 671 10 3 3 8 25 10 49 l5 43 -124 39
c-157 50 -266 104 -312 155 -43 47 -82 123 -96 183 -22 102 -27 443 -35 2367
-5 1312 -12 2209 -20 2744 -2 131 0 234 5 230 9 -10 92 -227 530 -1379 171
-451 347 -912 390 -1025 43 -113 140 -367 215 -565 75 -198 147 -387 160 -420
20 -52 224 -587 335 -880 21 -55 57 -149 80 -210 23 -60 54 -144 70 -185 15
-41 75 -199 133 -350 58 -151 148 -390 202 -530 53 -140 100 -259 104 -263 5
-5 121 -11 258 -13 l250 -4 48 132 c26 73 94 261 150 418 394 1090 604 1673
646 1790 26 74 57 160 68 190 104 287 248 688 266 740 13 36 84 236 160 445
75 209 197 547 270 750 73 204 142 395 153 425 11 30 96 264 187 520 92 256
171 472 177 480 8 14 7 -546 -7 -2895 -2 -341 -4 -1027 -5 -1525 -2 -976 -2
-975 -55 -1080 -13 -25 -45 -65 -72 -89 -45 -39 -197 -119 -326 -171 l-57 -24
0 -53 0 -53 1266 4 c696 3 1269 7 1272 11 3 3 7 24 9 48 l4 42 -112 49 c-227
101 -315 170 -360 282 l-24 59 0 2860 0 2860 22 70 c51 161 155 247 405 336
l68 24 -3 47 c-1 27 -4 48 -7 49 -3 0 -455 2 -1005 4 l-1000 5 -64 -178 c-35
-97 -76 -213 -92 -257 -15 -44 -42 -118 -59 -165 -17 -47 -46 -128 -65 -180
-18 -52 -43 -122 -55 -155 -12 -33 -143 -397 -292 -810 -148 -412 -309 -860
-358 -995 -48 -135 -150 -416 -225 -625 -410 -1139 -553 -1526 -570 -1544 -11
-11 -14 -9 -20 10 -7 25 -118 316 -345 909 -73 190 -143 372 -155 405 -12 33
-82 215 -155 405 -72 190 -219 572 -325 850 -106 278 -241 631 -301 785 -59
154 -128 336 -154 405 -26 69 -112 292 -189 495 -78 204 -165 432 -194 507
l-52 138 -983 0 -983 0 3 -55z"/>
<path d="M8480 10681 c-21 -6 -25 -13 -28 -51 l-2 -45 149 -58 c175 -68 244
-114 302 -200 21 -33 49 -92 62 -131 l22 -71 0 -2825 0 -2825 -42 -85 c-70
-144 -171 -221 -406 -311 l-88 -34 4 -43 c2 -23 7 -45 10 -48 6 -6 2591 -6
2742 0 108 5 284 16 315 21 14 2 52 6 85 10 350 37 748 135 1070 263 879 349
1509 1012 1790 1885 39 121 92 328 109 432 48 282 64 497 60 835 -1 135 -5
265 -8 290 -3 25 -8 77 -11 115 -10 116 -45 332 -76 471 -219 975 -830 1713
-1744 2104 -299 128 -681 227 -1030 265 -33 4 -70 8 -83 10 -13 2 -71 7 -130
10 -59 4 -123 9 -142 11 -62 7 -2904 12 -2930 5z m2561 -205 c283 -6 422 -22
594 -66 354 -91 599 -233 791 -458 308 -360 500 -959 559 -1747 4 -44 8 -93
11 -110 18 -137 25 -925 11 -1305 -21 -573 -105 -1110 -229 -1470 -48 -138
-158 -369 -223 -465 -197 -292 -438 -477 -764 -585 -193 -65 -385 -99 -641
-114 -68 -4 -557 -9 -607 -7 -10 1 -13 642 -13 3170 l0 3168 128 -3 c70 -2
242 -6 383 -8z"/>
</g>
</svg>
